<?xml version="1.0" encoding="iso-8859-1"?>
<!-- Generator: Adobe Illustrator 16.0.0, SVG Export Plug-In . SVG Version: 6.00 Build 0)  -->
<!DOCTYPE svg PUBLIC "-//W3C//DTD SVG 1.1//EN" "http://www.w3.org/Graphics/SVG/1.1/DTD/svg11.dtd">
<svg xmlns="http://www.w3.org/2000/svg" xmlns:xlink="http://www.w3.org/1999/xlink" version="1.1" id="Capa_1" x="0px" y="0px" width="512px" height="512px" viewBox="0 0 215.964 215.964" style="enable-background:new 0 0 215.964 215.964;" xml:space="preserve">
<g>
	<g>
		<path d="M8.274,110.407c-3.641,7.873-4.153,16.549-1.281,24.073c2.737,7.183,8.311,12.715,15.699,15.567    c4.169,1.613,8.164,2.299,11.971,2.299c4.219,0,8.214-0.859,12.037-2.22c0.366,0.021,0.741-0.026,1.091-0.189    c5.679-2.812,10.687-4.915,15.19-4.726c-1.761,1.371-2.987,3.449-3.406,6.229c-1.194,7.604,4.864,10.768,12.326,13.848    c2.9,1.191,5.622,2.975,9.461,7.811l2.479,3.101l1.252-3.766c0.245-0.728,5.848-17.792,0.158-27.374    c-1.972-3.333-5.023-5.39-9.042-6.112l-0.896-0.073c-1.49,0-3.815,0.601-5.4,2.367c-0.306,0.332-0.44,0.749-0.662,1.129    c-1.783-0.854-3.62-1.287-5.445-1.439c0.844-0.564,1.69-1.118,2.534-1.683c2.79-1.846,5.545-3.696,8.298-5.311    c13.613-8.036,21.821-12.318,30.997-7.282v18.604c0,0.327,0.092,0.617,0.211,0.907v6.027c0,1.207,0.971,2.162,2.154,2.162    s2.154-0.971,2.154-2.162v-6.027c0.118-0.29,0.211-0.57,0.211-0.907v-18.604c9.199-5.068,17.395-0.775,30.979,7.282    c2.774,1.635,5.521,3.48,8.312,5.311c0.833,0.564,1.688,1.118,2.541,1.683c-1.846,0.142-3.67,0.574-5.458,1.444    c-0.216-0.38-0.343-0.791-0.664-1.128c-1.582-1.751-3.897-2.373-5.4-2.373l-0.859,0.089c-4.039,0.718-7.087,2.774-9.064,6.106    c-5.695,9.582-0.096,26.668,0.158,27.375l1.255,3.766l2.479-3.102c3.839-4.836,6.56-6.634,9.46-7.81    c7.457-3.08,13.521-6.244,12.324-13.849c-0.416-2.795-1.64-4.856-3.396-6.228c4.498-0.179,9.519,1.925,15.188,4.726    c0.332,0.168,0.722,0.211,1.086,0.189c3.828,1.36,7.815,2.22,12.034,2.22c3.808,0,7.783-0.686,11.976-2.299    c7.383-2.843,12.957-8.385,15.694-15.567c2.853-7.525,2.367-16.2-1.271-24.073c5.058-3.251,11.37-7.641,6.444-18.61    c-2.009-4.493-7.256-7.045-5.875-21.864c0,0-8.722,3.715-11.971,13.743c-7.245-16.463-23.799-9.173-23.799-9.173    c7.721,4.902,4.825,11.27,9.788,18.565c-10.315-0.401-16.76,6.262-16.76,6.262c14.328,4.018,14.855,9.819,18.342,13.324    c8.737,8.785,15.219,3.892,20.134,0.273c2.853,6.635,3.296,13.807,0.934,20.008c-2.294,6.033-6.987,10.684-13.2,13.089    c-10.283,3.955-19.269,1.519-27.706-2.933c-8.944-6.823-11.634-15.145-7.684-23.614c0.248,0.074,0.49,0.158,0.754,0.211    c0.485,0.085,0.981,0.116,1.461,0.116c4.203,0,7.778-3.021,8.506-7.141c0.401-2.268-0.105-4.559-1.413-6.444    c-1.329-1.898-3.322-3.164-5.601-3.557c-4.735-0.854-9.176,2.376-10.004,7.003c-0.405,2.27,0.111,4.559,1.43,6.447    c0.327,0.464,0.686,0.886,1.075,1.276c-3.032,6.307-3.068,12.635-0.284,18.468c-0.101-0.063-0.185-0.116-0.279-0.19    c-2.843-1.888-5.675-3.765-8.501-5.452c-7.547-4.462-14.513-8.554-21.421-9.703c3.66-1.065,7.451-2.858,10.42-5.864    c8.349-8.485,7.02-23.335,7.02-23.335s-14.877-1.107-23.219,7.361c-3.046,3.099-4.823,7.062-5.817,10.832    c1.582-19.828,16.875-35.791,36.382-38.428c0.459,4.4,4.14,7.862,8.67,7.862c4.835,0,8.764-3.926,8.764-8.764    s-3.929-8.775-8.764-8.775c-3.565,0-6.629,2.139-7.989,5.199c-16.738,1.793-30.803,12.485-37.455,27.243v-36.88    c3.784-0.979,6.61-4.385,6.61-8.479c0-4.833-3.932-8.741-8.765-8.741s-8.764,3.924-8.764,8.741c0,4.105,2.813,7.517,6.607,8.479    v36.88c-6.634-14.739-20.725-25.45-37.452-27.243c-1.374-3.056-4.425-5.199-7.987-5.199c-4.838,0-8.764,3.937-8.764,8.775    s3.926,8.764,8.764,8.764c4.535,0,8.213-3.462,8.667-7.862c19.509,2.637,34.812,18.631,36.374,38.475    c-1.01-3.786-2.755-7.765-5.822-10.879c-8.353-8.469-23.224-7.361-23.224-7.361s-1.329,14.85,7.024,23.335    c2.977,3.017,6.776,4.799,10.439,5.864c-6.9,1.149-13.851,5.241-21.434,9.713c-2.819,1.678-5.659,3.555-8.498,5.442    c-0.103,0.074-0.179,0.127-0.277,0.19c2.813-5.833,2.761-12.161-0.29-18.468c0.388-0.391,0.772-0.812,1.086-1.287    c1.316-1.888,1.825-4.166,1.424-6.426c-0.809-4.622-5.292-7.868-9.99-7.014c-2.294,0.393-4.282,1.675-5.608,3.557    c-1.318,1.885-1.816,4.171-1.416,6.434c0.728,4.145,4.303,7.15,8.506,7.15c0.48,0,0.976-0.031,1.468-0.127    c0.253-0.042,0.485-0.126,0.728-0.2c3.963,8.479,1.263,16.802-7.689,23.625c-8.435,4.44-17.415,6.877-27.686,2.922    c-6.228-2.405-10.918-7.056-13.215-13.089c-2.365-6.201-1.928-13.384,0.934-20.008c4.898,3.618,11.385,8.512,20.136-0.273    c3.483-3.494,3.987-9.306,18.338-13.324c0,0-6.426-6.663-16.743-6.262c4.946-7.307,2.046-13.658,9.774-18.565    c0,0-16.564-7.29-23.804,9.173C16.324,73.665,7.604,69.944,7.604,69.944c1.381,14.813-3.874,17.371-5.877,21.864    C-3.106,102.767,3.22,107.156,8.274,110.407z M158.646,106.843c0.242,0,0.495,0.021,0.748,0.063    c1.16,0.205,2.146,0.838,2.812,1.787c0.653,0.947,0.901,2.083,0.701,3.212c-0.406,2.336-2.689,3.871-4.983,3.522    c-1.149-0.211-2.142-0.833-2.811-1.793c-0.654-0.949-0.907-2.088-0.712-3.217C154.771,108.377,156.59,106.843,158.646,106.843z     M142.53,161.286c-2.437,1.002-5.136,2.457-8.501,6.001c-1.239-5.2-2.773-14.534,0.496-20.028    c1.329-2.236,3.322-3.565,6.212-4.071c0.56,0,1.604,0.295,2.188,0.949c0.147,0.169,0.259,0.369,0.332,0.559    c-2.499,2.089-4.872,5.084-7.04,9.419c-0.532,1.064-0.1,2.373,0.976,2.9c0.316,0.147,0.633,0.221,0.971,0.221    c0.791,0,1.556-0.442,1.93-1.202c1.909-3.828,3.913-6.454,6.033-8.2c0.095-0.031,0.67-0.152,1.481-0.152    c2.689,0,4.161,1.402,4.614,4.393C152.745,155.464,151.475,157.584,142.53,161.286z M63.846,152.089    c0.464-2.995,1.917-4.388,4.609-4.388c0.833,0,1.437,0.138,1.487,0.158c2.133,1.729,4.135,4.366,6.03,8.2    c0.375,0.76,1.139,1.202,1.928,1.202c0.329,0,0.654-0.073,0.962-0.222c1.068-0.543,1.5-1.835,0.984-2.9    c-2.149-4.345-4.548-7.324-7.038-9.402c0.077-0.2,0.164-0.4,0.33-0.569c0.588-0.653,1.777-0.875,2.318-0.938    c2.779,0.496,4.772,1.824,6.102,4.061c3.261,5.495,1.732,14.829,0.495,20.028c-3.364-3.544-6.064-4.999-8.498-6.001    C64.6,157.584,63.331,155.464,63.846,152.089z M60.961,113.635c-0.665,0.96-1.674,1.582-2.813,1.782    c-2.392,0.401-4.59-1.191-4.997-3.512c-0.198-1.129,0.061-2.265,0.704-3.212c0.665-0.949,1.669-1.582,2.819-1.787    c0.248-0.042,0.496-0.063,0.738-0.063c2.059,0,3.889,1.534,4.24,3.586C61.868,111.547,61.62,112.686,60.961,113.635z" fill="#55c57a"/>
	</g>
</g>
<g>
</g>
<g>
</g>
<g>
</g>
<g>
</g>
<g>
</g>
<g>
</g>
<g>
</g>
<g>
</g>
<g>
</g>
<g>
</g>
<g>
</g>
<g>
</g>
<g>
</g>
<g>
</g>
<g>
</g>
</svg>
