<?xml version="1.0" encoding="iso-8859-1"?>
<!-- Generator: Adobe Illustrator 19.0.0, SVG Export Plug-In . SVG Version: 6.00 Build 0)  -->
<svg xmlns="http://www.w3.org/2000/svg" xmlns:xlink="http://www.w3.org/1999/xlink" version="1.1" id="Capa_1" x="0px" y="0px" viewBox="0 0 480 480" style="enable-background:new 0 0 480 480;" xml:space="preserve" width="512px" height="512px">
<g>
	<g>
		<path d="M240,0C107.452,0,0,107.452,0,240s107.452,240,240,240s240-107.452,240-240C479.85,107.514,372.486,0.15,240,0z     M232,463.8C114.656,459.472,20.528,365.344,16.2,248h64.208c4.17,81.932,69.659,147.422,151.592,151.592V463.8z M232,383.592    C158.896,379.457,100.543,321.104,96.408,248h64c3.852,37.829,33.763,67.74,71.592,71.592V383.592z M232,303.448    c-28.957-3.692-51.756-26.491-55.448-55.448H232V303.448z M232,232h-55.448c3.692-28.957,26.491-51.756,55.448-55.448V232z     M232,160.408c-37.829,3.852-67.74,33.763-71.592,71.592h-64C100.543,158.896,158.896,100.543,232,96.408V160.408z M232,80.408    C150.068,84.578,84.578,150.067,80.408,232H16.2C20.528,114.656,114.656,20.528,232,16.2V80.408z M248,16.2    c117.344,4.328,211.472,98.456,215.8,215.8h-64.208C395.422,150.067,329.933,84.578,248,80.408V16.2z M248,96.408    c73.104,4.135,131.457,62.488,135.592,135.592h-64c-3.852-37.829-33.763-67.74-71.592-71.592V96.408z M248,176.552    c28.957,3.692,51.756,26.491,55.448,55.448H248V176.552z M248,248h55.448c-3.692,28.957-26.491,51.756-55.448,55.448V248z     M248,319.592c37.829-3.852,67.74-33.763,71.592-71.592h64C379.457,321.104,321.104,379.457,248,383.592V319.592z M248,463.8    v-64.208c81.933-4.17,147.422-69.659,151.592-151.592H463.8C459.472,365.344,365.344,459.472,248,463.8z" fill="#55c57a"/>
	</g>
</g>
<g>
</g>
<g>
</g>
<g>
</g>
<g>
</g>
<g>
</g>
<g>
</g>
<g>
</g>
<g>
</g>
<g>
</g>
<g>
</g>
<g>
</g>
<g>
</g>
<g>
</g>
<g>
</g>
<g>
</g>
</svg>
